<?xml version="1.0" encoding="iso-8859-1"?>
<!-- Generator: Adobe Illustrator 19.0.0, SVG Export Plug-In . SVG Version: 6.00 Build 0)  -->
<svg version="1.1" id="Capa_1" xmlns="http://www.w3.org/2000/svg" xmlns:xlink="http://www.w3.org/1999/xlink" x="0px" y="0px"
	 viewBox="0 0 426.684 426.684" style="enable-background:new 0 0 426.684 426.684;" xml:space="preserve">
<rect x="40.849" y="398.592" style="fill:#64798A;" width="351.019" height="28.07"/>
<rect x="40.849" y="411.179" style="fill:#3A556A;" width="351.019" height="15.505"/>
<rect x="71.155" y="145.963" style="fill:#DC8744;" width="287.147" height="252.629"/>
<rect x="300.297" y="13.914" style="fill:#E56353;" width="37.009" height="94.251"/>
<rect x="300.297" y="13.914" style="fill:#1C75A1;" width="37.009" height="21.261"/>
<rect x="181.828" y="278.827" style="fill:#D15241;" width="71.061" height="124.885"/>
<rect x="184.286" y="283.904" style="fill:#2D93BA;" width="66.189" height="114.714"/>
<polygon style="fill:#27A2DB;" points="184.266,398.595 184.266,283.883 250.453,283.883 "/>
<rect x="187.87" y="328.525" style="fill:#D15241;" width="3.597" height="24.661"/>
<rect x="181.828" y="278.827" style="fill:#64798A;" width="71.061" height="124.885"/>
<rect x="184.286" y="283.904" style="fill:#D5D6DB;" width="66.189" height="114.714"/>
<polygon style="fill:#EBF0F3;" points="184.266,398.595 184.266,283.883 250.453,283.883 "/>
<rect x="187.87" y="328.917" style="fill:#D15241;" width="3.597" height="24.661"/>
<polygon style="fill:#64798A;" points="391.883,145.961 219.066,0 34.801,145.961 "/>
<polygon style="fill:#DC8744;" points="333.163,146.109 217.184,47.132 93.521,146.109 "/>
<g>
	<rect x="262.75" y="169.51" style="fill:#EBF0F3;" width="75.098" height="69.798"/>
	<polygon style="fill:#EBF0F3;" points="262.761,239.307 262.761,169.51 337.86,169.51 	"/>
</g>
<g>
	<rect x="298.889" y="169.024" style="fill:#64798A;" width="5.175" height="70.285"/>
	<rect x="262.75" y="201.472" style="fill:#64798A;" width="75.098" height="5.909"/>
</g>
<g>
	<rect x="109.756" y="169.51" style="fill:#EBF0F3;" width="75.098" height="69.798"/>
	<polygon style="fill:#EBF0F3;" points="109.756,239.307 109.756,169.51 184.856,169.51 	"/>
</g>
<g>
	<rect x="145.886" y="169.024" style="fill:#64798A;" width="5.175" height="70.285"/>
	<rect x="109.76" y="201.472" style="fill:#64798A;" width="75.098" height="5.909"/>
</g>
<g>
	<rect x="109.76" y="284.16" style="fill:#EBF0F3;" width="43.755" height="40.666"/>
	<polygon style="fill:#EBF0F3;" points="109.759,324.834 109.759,284.167 153.515,284.167 	"/>
</g>
<g>
	<rect x="130.799" y="283.904" style="fill:#64798A;" width="3.017" height="40.951"/>
	<rect x="109.76" y="302.78" style="fill:#64798A;" width="43.755" height="3.443"/>
</g>
<g>
	<rect x="289.417" y="284.16" style="fill:#EBF0F3;" width="43.755" height="40.666"/>
	<polygon style="fill:#EBF0F3;" points="289.405,324.834 289.405,284.167 333.161,284.167 	"/>
</g>
<g>
	<rect x="310.451" y="283.904" style="fill:#64798A;" width="3.017" height="40.951"/>
	<rect x="289.417" y="302.78" style="fill:#64798A;" width="43.755" height="3.443"/>
</g>
<g>
	<path style="fill:#EBF0F3;" d="M215.372,102.087h-26.764c0.523-14.577,12.187-26.24,26.764-26.764V102.087z"/>
	<path style="fill:#EBF0F3;" d="M217.36,102.087V75.323c14.577,0.523,26.24,12.187,26.764,26.764H217.36z"/>
	<path style="fill:#EBF0F3;" d="M215.372,104.075v26.764c-14.577-0.523-26.241-12.187-26.764-26.764H215.372z"/>
	<path style="fill:#EBF0F3;" d="M217.36,104.075h26.764c-0.523,14.577-12.187,26.241-26.764,26.764V104.075z"/>
</g>
<g>
</g>
<g>
</g>
<g>
</g>
<g>
</g>
<g>
</g>
<g>
</g>
<g>
</g>
<g>
</g>
<g>
</g>
<g>
</g>
<g>
</g>
<g>
</g>
<g>
</g>
<g>
</g>
<g>
</g>
</svg>
