<svg width="427" height="427" viewBox="0 0 427 427" fill="none" xmlns="http://www.w3.org/2000/svg">
<g id="house 1">
<path id="accent2" d="M389.019 307H38V335.07H389.019V307Z" fill="#64798A"/>
<path id="Vector" d="M358 146H71V307H358V146Z" fill="#DC8744"/>
<path id="accent1" d="M391.883 145.961L219.066 0L34.801 145.961H391.883Z" fill="#64798A"/>
<path id="Vector_2" d="M333.163 146.109L217.184 47.132L93.521 146.109H333.163Z" fill="#DC8744"/>
</g>
<g id="technical-support 2">
<g clip-path="url(#clip0)">
<path id="cir2" d="M294.097 145.467C294.097 151.785 288.444 156.905 281.472 156.905C274.499 156.905 268.847 151.785 268.847 145.467C268.847 139.151 274.499 134.03 281.472 134.03C288.444 134.03 294.097 139.151 294.097 145.467Z" fill="#F5737F"/>
<path id="cir1" d="M163.153 275.533C163.153 281.849 157.501 286.97 150.528 286.97C143.556 286.97 137.903 281.849 137.903 275.533C137.903 269.215 143.556 264.095 150.528 264.095C157.501 264.095 163.153 269.215 163.153 275.533Z" fill="#D8EC84"/>
<path id="gear" d="M273.142 199.293C271.638 192.956 268.886 187.039 265.125 181.767L272.685 174.917L255.234 159.121L247.681 165.963C241.862 162.557 235.33 160.063 228.335 158.7V149.023H203.666V158.7C196.67 160.063 190.138 162.557 184.319 165.963L176.766 159.121L159.315 174.917L166.875 181.767C163.114 187.039 160.362 192.956 158.858 199.293H148.147L148.133 221.642H158.858C160.36 227.98 163.113 233.897 166.875 239.169L159.286 246.044L176.724 261.853L184.319 254.972C190.138 258.381 196.67 260.874 203.666 262.235V271.977H228.335V262.235C235.33 260.874 241.862 258.381 247.683 254.972L255.277 261.853L272.714 246.044L265.125 239.169C268.887 233.897 271.64 227.98 273.142 221.642H283.867V199.293H273.142ZM216 236.459C200.174 236.459 187.346 224.837 187.346 210.5C187.346 196.163 200.174 184.541 216 184.541C231.826 184.541 244.654 196.163 244.654 210.5C244.654 224.837 231.826 236.459 216 236.459Z" fill="#BBBBBB"/>
<path id="rot1" d="M150.528 260.521C147.7 260.521 144.981 261.16 142.569 262.361C129.864 247.606 122.891 229.277 122.891 210.5C122.891 163.988 164.659 126.148 216 126.148C222.242 126.148 228.48 126.711 234.543 127.821C236.676 128.212 238.76 126.961 239.191 125.026C239.623 123.091 238.242 121.206 236.106 120.814C229.53 119.61 222.766 119 216 119C189.022 119 163.658 128.518 144.582 145.8C125.506 163.082 115 186.06 115 210.5C115 231.059 122.706 251.122 136.735 267.206C134.928 269.651 133.958 272.524 133.958 275.533C133.958 279.542 135.682 283.312 138.812 286.146C141.941 288.982 146.102 290.544 150.528 290.544C154.954 290.544 159.115 288.982 162.245 286.146C165.375 283.312 167.098 279.541 167.098 275.531C167.098 271.523 165.375 267.752 162.245 264.917C159.115 262.082 154.954 260.521 150.528 260.521ZM156.665 281.092C155.026 282.578 152.846 283.396 150.528 283.396C148.21 283.396 146.031 282.578 144.391 281.092C142.751 279.607 141.848 277.632 141.848 275.533C141.848 273.431 142.751 271.457 144.391 269.972C146.029 268.486 148.21 267.669 150.528 267.669C152.846 267.669 155.025 268.487 156.665 269.972C158.304 271.457 159.208 273.431 159.208 275.533C159.208 277.632 158.304 279.607 156.665 281.092Z" fill="#64798A"/>
<path id="rot2" d="M295.262 153.79C299.551 147.961 298.862 139.992 293.189 134.852C290.059 132.018 285.898 130.456 281.472 130.456C277.046 130.456 272.885 132.018 269.755 134.852C266.625 137.688 264.902 141.458 264.902 145.467C264.902 149.477 266.625 153.247 269.755 156.083C272.885 158.918 277.046 160.479 281.472 160.479C284.3 160.479 287.019 159.84 289.431 158.639C302.136 173.395 309.109 191.723 309.109 210.5C309.109 257.012 267.341 294.852 216 294.852C209.82 294.852 203.64 294.3 197.634 293.211C195.498 292.824 193.419 294.079 192.991 296.015C192.564 297.951 193.949 299.833 196.085 300.221C202.6 301.401 209.301 302 216 302C242.978 302 268.342 292.482 287.418 275.2C306.494 257.918 317 234.94 317 210.5C317 189.94 309.293 169.875 295.262 153.79ZM275.335 151.028C273.696 149.543 272.792 147.569 272.792 145.467C272.792 143.368 273.696 141.393 275.335 139.908C276.974 138.422 279.154 137.604 281.472 137.604C283.79 137.604 285.971 138.422 287.611 139.908C290.993 142.974 290.993 147.962 287.611 151.028C285.971 152.512 283.79 153.331 281.472 153.331C279.153 153.331 276.974 152.512 275.335 151.028Z" fill="#64798A"/>
<path id="Vector_3" d="M199.719 271.977C199.719 273.951 201.487 275.551 203.665 275.551H228.334C230.513 275.551 232.279 273.951 232.279 271.977V265.047C237.467 263.782 242.426 261.92 247.086 259.488L252.486 264.38C253.226 265.05 254.229 265.427 255.277 265.427C256.322 265.427 257.327 265.05 258.067 264.379L275.503 248.571C277.043 247.175 277.043 244.912 275.503 243.517L270.109 238.63C272.794 234.408 274.85 229.915 276.246 225.216H283.866C286.045 225.216 287.811 223.616 287.811 221.642V199.293C287.811 197.319 286.045 195.719 283.866 195.719H276.245C274.848 191.021 272.794 186.528 270.109 182.306L275.474 177.445C276.214 176.775 276.63 175.865 276.63 174.917C276.628 173.969 276.212 173.059 275.473 172.388L258.022 156.592C256.483 155.197 253.984 155.197 252.443 156.594L247.086 161.448C242.426 159.016 237.467 157.153 232.279 155.888V149.023C232.279 147.049 230.513 145.449 228.334 145.449H203.665C201.487 145.449 199.719 147.049 199.719 149.023V155.89C194.534 157.153 189.574 159.016 184.914 161.448L179.555 156.594C178.016 155.199 175.517 155.197 173.976 156.592L156.528 172.39C155.786 173.06 155.37 173.969 155.37 174.917C155.37 175.865 155.786 176.775 156.526 177.445L161.891 182.306C159.206 186.528 157.15 191.019 155.754 195.719H148.148C145.969 195.719 144.203 197.319 144.203 199.291L144.189 221.64C144.188 222.588 144.604 223.498 145.343 224.169C146.083 224.839 147.086 225.216 148.134 225.216H155.754C157.15 229.915 159.206 234.408 161.891 238.63L156.497 243.517C154.957 244.912 154.956 247.175 156.497 248.571L173.933 264.379C174.673 265.049 175.676 265.427 176.723 265.427H176.724C177.771 265.427 178.774 265.05 179.514 264.38L184.912 259.488C189.574 261.92 194.534 263.782 199.719 265.047V271.977ZM186.459 251.971C184.898 251.056 182.844 251.254 181.528 252.445L176.724 256.797L164.865 246.045L169.664 241.696C170.979 240.505 171.198 238.644 170.188 237.23C166.611 232.215 164.096 226.718 162.715 220.89C162.324 219.244 160.718 218.067 158.858 218.067H152.081L152.091 202.867H158.858C160.718 202.867 162.324 201.692 162.715 200.044C164.096 194.218 166.611 188.721 170.188 183.706C171.198 182.292 170.979 180.43 169.664 179.24L164.896 174.918L176.764 164.175L181.528 168.492C182.844 169.683 184.897 169.88 186.459 168.966C191.994 165.726 198.061 163.447 204.494 162.196C206.311 161.842 207.61 160.386 207.61 158.702V152.598H224.388V158.7C224.388 160.386 225.686 161.842 227.505 162.195C233.936 163.447 240.005 165.725 245.539 168.965C247.1 169.88 249.154 169.683 250.469 168.49L255.234 164.175L267.103 174.918L262.334 179.238C261.018 180.43 260.801 182.292 261.81 183.706C265.387 188.721 267.901 194.218 269.283 200.044C269.673 201.692 271.281 202.867 273.141 202.867H279.92V218.067H273.141C271.281 218.067 269.675 219.244 269.283 220.89C267.902 226.717 265.387 232.215 261.81 237.228C260.801 238.644 261.02 240.505 262.334 241.696L267.133 246.044L255.274 256.796L250.471 252.445C249.154 251.253 247.1 251.056 245.539 251.971C240.003 255.211 233.936 257.488 227.505 258.741C225.686 259.095 224.388 260.55 224.388 262.235V268.402H207.61V262.235C207.61 260.552 206.311 259.095 204.494 258.741C198.063 257.49 191.995 255.211 186.459 251.971Z" fill="#64798A"/>
<path id="Vector_4" d="M248.6 210.5C248.6 194.215 233.976 180.967 216 180.967C198.024 180.967 183.4 194.215 183.4 210.5C183.4 226.785 198.024 240.033 216 240.033C233.976 240.033 248.6 226.785 248.6 210.5ZM191.291 210.5C191.291 198.156 202.375 188.115 216 188.115C229.625 188.115 240.709 198.158 240.709 210.5C240.709 222.842 229.625 232.885 216 232.885C202.375 232.885 191.291 222.844 191.291 210.5Z" fill="#64798A"/>
<path id="Vector_5" d="M252.328 132.518C253.366 132.518 254.384 132.135 255.117 131.471C255.851 130.802 256.273 129.88 256.273 128.939C256.273 128.004 255.852 127.081 255.117 126.412C254.384 125.748 253.366 125.365 252.328 125.365C251.286 125.365 250.273 125.748 249.54 126.412C248.805 127.081 248.382 128 248.382 128.939C248.382 129.883 248.805 130.802 249.54 131.471C250.273 132.135 251.286 132.518 252.328 132.518Z" fill="#64798A"/>
<path id="Vector_6" d="M179.845 288.546C178.808 288.546 177.789 288.929 177.055 289.594C176.322 290.258 175.9 291.181 175.9 292.121C175.9 293.064 176.322 293.983 177.055 294.648C177.789 295.312 178.808 295.695 179.845 295.695C180.882 295.695 181.901 295.312 182.634 294.648C183.368 293.983 183.79 293.06 183.79 292.121C183.79 291.181 183.368 290.258 182.634 289.594C181.901 288.929 180.882 288.546 179.845 288.546Z" fill="#64798A"/>
</g>
</g>
<defs>
<clipPath id="clip0">
<rect x="115" y="119" width="202" height="183" fill="white"/>
</clipPath>
</defs>
</svg>
